<svg width="42" height="33" viewBox="0 0 42 33" fill="none" xmlns="http://www.w3.org/2000/svg">
<rect width="42" height="33" rx="7" fill="black"/>
<path d="M20.6357 17.5425C17.9824 16.7798 16.0488 15.8452 14.835 14.7388C13.6318 13.6216 13.0303 12.2466 13.0303 10.6138C13.0303 8.76611 13.7661 7.24072 15.2378 6.0376C16.7202 4.82373 18.6431 4.2168 21.0063 4.2168C22.6177 4.2168 24.0518 4.52832 25.3086 5.15137C26.5762 5.77441 27.5537 6.63379 28.2412 7.72949C28.9395 8.8252 29.2886 10.0229 29.2886 11.3228H26.1787C26.1787 9.90479 25.7275 8.79297 24.8252 7.9873C23.9229 7.1709 22.6499 6.7627 21.0063 6.7627C19.481 6.7627 18.2886 7.10107 17.4292 7.77783C16.5806 8.44385 16.1562 9.37305 16.1562 10.5654C16.1562 11.5215 16.5591 12.3325 17.3647 12.9985C18.1812 13.6538 19.5615 14.2554 21.5059 14.8032C23.4609 15.3511 24.9863 15.958 26.082 16.624C27.1885 17.2793 28.0049 18.0474 28.5312 18.9282C29.0684 19.8091 29.3369 20.8457 29.3369 22.0381C29.3369 23.9395 28.5957 25.4648 27.1133 26.6143C25.6309 27.7529 23.6489 28.3223 21.1675 28.3223C19.5562 28.3223 18.0522 28.0161 16.6558 27.4038C15.2593 26.7808 14.1797 25.9321 13.417 24.8579C12.665 23.7837 12.2891 22.5645 12.2891 21.2002H15.3989C15.3989 22.6182 15.9199 23.7407 16.9619 24.5679C18.0146 25.3843 19.4165 25.7925 21.1675 25.7925C22.8003 25.7925 24.0518 25.4595 24.9219 24.7935C25.792 24.1274 26.2271 23.2197 26.2271 22.0703C26.2271 20.9209 25.8242 20.0347 25.0186 19.4116C24.2129 18.7778 22.752 18.1548 20.6357 17.5425Z" fill="#0456F8"/>
</svg>
