<svg width="24" height="24" viewBox="0 0 24 24" fill="none" xmlns="http://www.w3.org/2000/svg">
<path fill-rule="evenodd" clip-rule="evenodd" d="M8.82523 5.841C8.88812 5.24588 9.00842 4.64445 9.20755 4.09865C9.44269 3.45416 9.77666 2.91749 10.2256 2.55076C10.665 2.19182 11.2464 1.96895 12.039 1.99801C12.8353 2.02721 13.4128 2.2869 13.8444 2.67067C14.284 3.06164 14.601 3.60748 14.8204 4.24637C14.9943 4.75277 15.1011 5.30006 15.162 5.841H8.82523ZM7.7697 6.841C7.76614 7.34802 7.79557 7.82033 7.84348 8.22288C7.87612 8.49708 8.12487 8.69291 8.39908 8.66027C8.67328 8.62763 8.86911 8.37888 8.83647 8.10467C8.79218 7.73257 8.76614 7.30041 8.76969 6.841L15.2275 6.841C15.238 7.31171 15.2211 7.75228 15.1931 8.12649C15.1725 8.40186 15.3791 8.64179 15.6544 8.66238C15.9298 8.68298 16.1697 8.47644 16.1903 8.20106C16.2192 7.81448 16.2383 7.34813 16.2278 6.841H19.6065L20.8677 22.0046H3.13227L4.39353 6.841H7.7697ZM7.8202 5.841C7.88713 5.14117 8.02574 4.42026 8.26812 3.75591C8.54315 3.00208 8.96281 2.29106 9.593 1.77629C10.2327 1.25373 11.056 0.961294 12.0756 0.99868C13.0915 1.03593 13.8944 1.37699 14.5089 1.92338C15.1152 2.46258 15.5102 3.17631 15.7662 3.92152C15.9791 4.54148 16.1023 5.20242 16.1677 5.841H19.6065C20.1266 5.841 20.5599 6.23975 20.603 6.75811L21.8643 21.9217C21.9128 22.5047 21.4527 23.0046 20.8677 23.0046H3.13227C2.54729 23.0046 2.08722 22.5047 2.13571 21.9217L3.39697 6.75811C3.44009 6.23975 3.87338 5.841 4.39353 5.841H7.8202Z" fill="black"/>
<path d="M12.16 13.94L13.99 11.68V11H9.37V11.87H12.74L10.98 14.03V14.73H11.54C12.74 14.73 13.27 15.21 13.27 15.95C13.27 16.71 12.67 17.19 11.62 17.19C10.76 17.19 9.98 16.88 9.51 16.44L9.05 17.23C9.64 17.76 10.62 18.08 11.62 18.08C13.4 18.08 14.27 17.12 14.27 15.94C14.27 14.86 13.56 14.07 12.16 13.94Z" fill="black"/>
</svg>
