<svg width="24" height="24" viewBox="0 0 24 24" fill="none" xmlns="http://www.w3.org/2000/svg">
<path d="M16.5 3H7.5C5.01472 3 3 5.01472 3 7.5V16.5C3 18.9853 5.01472 21 7.5 21H16.5C18.9853 21 21 18.9853 21 16.5V7.5C21 5.01472 18.9853 3 16.5 3Z" stroke="black" stroke-linecap="round" stroke-linejoin="round"/>
<path d="M15.3362 11.5053C15.4403 12.2071 15.3204 12.9237 14.9937 13.5534C14.667 14.1831 14.15 14.6938 13.5163 15.0127C12.8827 15.3316 12.1646 15.4427 11.4642 15.33C10.7638 15.2173 10.1167 14.8866 9.61511 14.3849C9.11348 13.8833 8.7828 13.2363 8.6701 12.5359C8.55739 11.8355 8.66841 11.1174 8.98735 10.4837C9.3063 9.85004 9.81693 9.33307 10.4466 9.00634C11.0763 8.67961 11.793 8.55975 12.4947 8.6638C13.2105 8.76995 13.8732 9.10349 14.3849 9.61517C14.8966 10.1269 15.2301 10.7895 15.3362 11.5053Z" stroke="black" stroke-linecap="round" stroke-linejoin="round"/>
<path d="M17 7H17.01" stroke="black" stroke-width="2" stroke-linecap="round" stroke-linejoin="round"/>
</svg>
