<svg width="64" height="64" viewBox="0 0 64 64" fill="none" xmlns="http://www.w3.org/2000/svg">
<path d="M56 42.6665V21.3332C55.999 20.3979 55.7522 19.4793 55.2841 18.6696C54.8161 17.8599 54.1433 17.1875 53.3333 16.7198L34.6667 6.05315C33.8559 5.58506 32.9362 5.33862 32 5.33862C31.0638 5.33862 30.1441 5.58506 29.3333 6.05315L10.6667 16.7198C9.8567 17.1875 9.18395 17.8599 8.7159 18.6696C8.24785 19.4793 8.00096 20.3979 8 21.3332V42.6665C8.00096 43.6018 8.24785 44.5203 8.7159 45.3301C9.18395 46.1398 9.8567 46.8122 10.6667 47.2798L29.3333 57.9465C30.1441 58.4146 31.0638 58.661 32 58.661C32.9362 58.661 33.8559 58.4146 34.6667 57.9465L53.3333 47.2798C54.1433 46.8122 54.8161 46.1398 55.2841 45.3301C55.7522 44.5203 55.999 43.6018 56 42.6665Z" stroke="black" stroke-width="2" stroke-linecap="round" stroke-linejoin="round"/>
<path d="M8.71924 18.5617L31.9992 32.0283L55.2792 18.5617" stroke="black" stroke-width="2" stroke-linecap="round" stroke-linejoin="round"/>
<path d="M32 58.88V32" stroke="black" stroke-width="2" stroke-linecap="round" stroke-linejoin="round"/>
</svg>
