<svg width="20" height="24" viewBox="0 0 20 24" fill="none" xmlns="http://www.w3.org/2000/svg">
<path fill-rule="evenodd" clip-rule="evenodd" d="M6.82536 5.841C6.88824 5.24588 7.00854 4.64445 7.20767 4.09865C7.44281 3.45416 7.77678 2.91749 8.22574 2.55076C8.66515 2.19182 9.24655 1.96895 10.0391 1.99801C10.8355 2.02721 11.4129 2.2869 11.8445 2.67067C12.2842 3.06164 12.6011 3.60748 12.8205 4.24637C12.9945 4.75277 13.1013 5.30006 13.1621 5.841H6.82536ZM5.76982 6.841C5.76626 7.34802 5.79569 7.82033 5.8436 8.22288C5.87624 8.49708 6.12499 8.69291 6.3992 8.66027C6.67341 8.62763 6.86923 8.37888 6.83659 8.10467C6.7923 7.73257 6.76626 7.30041 6.76981 6.841L13.2276 6.841C13.2381 7.31171 13.2212 7.75228 13.1932 8.12649C13.1727 8.40186 13.3792 8.64179 13.6546 8.66238C13.9299 8.68298 14.1699 8.47644 14.1905 8.20106C14.2194 7.81448 14.2384 7.34813 14.2279 6.841H17.6066L18.8678 22.0046H1.13239L2.39365 6.841H5.76982ZM5.82032 5.841C5.88725 5.14117 6.02586 4.42026 6.26824 3.75591C6.54327 3.00208 6.96293 2.29106 7.59312 1.77629C8.23285 1.25373 9.05612 0.961294 10.0758 0.99868C11.0916 1.03593 11.8945 1.37699 12.509 1.92338C13.1154 2.46258 13.5103 3.17631 13.7663 3.92152C13.9792 4.54148 14.1025 5.20242 14.1678 5.841H17.6066C18.1267 5.841 18.56 6.23975 18.6031 6.75811L19.8644 21.9217C19.9129 22.5047 19.4528 23.0046 18.8678 23.0046H1.13239C0.547411 23.0046 0.0873455 22.5047 0.135834 21.9217L1.39709 6.75811C1.44021 6.23975 1.8735 5.841 2.39365 5.841H5.82032Z" fill="black"/>
</svg>
