<svg width="24" height="24" viewBox="0 0 24 24" fill="none" xmlns="http://www.w3.org/2000/svg">
<path fill-rule="evenodd" clip-rule="evenodd" d="M9.10747 5.59093C9.17396 5.10601 9.28172 4.62509 9.44255 4.18427C9.66771 3.56711 9.98026 3.07403 10.3839 2.74431C10.7732 2.42628 11.2942 2.2208 12.03 2.24778C12.7714 2.27496 13.2925 2.51431 13.6784 2.85743C14.0764 3.21134 14.3738 3.71521 14.5841 4.32752C14.7219 4.7287 14.8163 5.15837 14.8782 5.59093H9.10747ZM7.52072 7.09093C7.52661 7.51476 7.55449 7.90888 7.59537 8.25236C7.64433 8.66367 8.01746 8.95741 8.42877 8.90845C8.84008 8.85949 9.13382 8.48637 9.08486 8.07506C9.04964 7.77923 9.02641 7.44545 9.02081 7.09093H14.9807C14.9817 7.45901 14.9666 7.80442 14.944 8.10778C14.9131 8.52084 15.2229 8.88073 15.6359 8.91162C16.049 8.94251 16.4089 8.6327 16.4398 8.21964C16.4642 7.89376 16.4818 7.50979 16.4808 7.09093H19.3765L20.5962 21.7545H3.40407L4.62374 7.09093H7.52072ZM7.59551 5.59093C7.67122 4.94415 7.80908 4.28501 8.0334 3.67016C8.3184 2.889 8.75948 2.1344 9.43498 1.58261C10.1248 1.01914 11.0085 0.709317 12.0849 0.748784C13.1557 0.788045 14.0149 1.14945 14.6751 1.73649C15.3232 2.31275 15.7377 3.06845 16.0028 3.84024C16.1977 4.40773 16.3194 5.00637 16.3912 5.59093H19.6066C20.2568 5.59093 20.7984 6.08937 20.8523 6.73732L22.1136 21.9009C22.1742 22.6296 21.5991 23.2545 20.8679 23.2545H3.13241C2.40118 23.2545 1.8261 22.6296 1.88671 21.9009L3.14797 6.73732C3.20186 6.08937 3.74348 5.59093 4.39367 5.59093H7.59551Z" fill="white"/>
</svg>
