<svg width="18" height="20" viewBox="0 0 18 20" fill="none" xmlns="http://www.w3.org/2000/svg">
<path fill-rule="evenodd" clip-rule="evenodd" d="M6.44749 4.78414C6.50162 4.32452 6.5981 3.86377 6.75122 3.44408C6.94384 2.91612 7.21501 2.48342 7.57404 2.19015C7.92353 1.90467 8.38787 1.72474 9.02942 1.74826C9.67474 1.77192 10.1371 1.98155 10.4816 2.28782C10.8341 2.60126 11.0917 3.04215 11.2715 3.56569C11.4043 3.95246 11.4896 4.36906 11.5412 4.78414H6.44749ZM5.39116 5.78414C5.39174 6.17899 5.41586 6.54635 5.45346 6.86222C5.4861 7.13643 5.73485 7.33226 6.00906 7.29962C6.28326 7.26698 6.47909 7.01823 6.44645 6.74402C6.41254 6.45912 6.39166 6.13197 6.39112 5.78414H11.6077C11.6129 6.14208 11.5994 6.4773 11.5778 6.76583C11.5572 7.04121 11.7638 7.28114 12.0391 7.30173C12.3145 7.32233 12.5544 7.11579 12.575 6.84041C12.5976 6.53842 12.6131 6.17744 12.6079 5.78414H15.262L16.2992 18.2538L1.70075 18.2538L2.73794 5.78414H5.39116ZM5.44139 4.78414C5.50033 4.21851 5.6158 3.63852 5.81179 3.10134C6.0443 2.46404 6.40116 1.857 6.94142 1.41568C7.49123 0.966578 8.19744 0.717086 9.06606 0.748935C9.93093 0.780646 10.6188 1.07164 11.1461 1.54052C11.6653 2.00221 12.0009 2.61097 12.2173 3.24084C12.3887 3.74003 12.4911 4.26989 12.548 4.78414H15.262C15.7821 4.78414 16.2154 5.18289 16.2586 5.70125L17.2957 18.1709C17.3442 18.7539 16.8842 19.2538 16.2992 19.2538H1.70075C1.11577 19.2538 0.655705 18.7539 0.704194 18.1709L1.74138 5.70125C1.78449 5.18289 2.21779 4.78414 2.73794 4.78414H5.44139Z" fill="black"/>
</svg>
