<svg width="32" height="32" viewBox="0 0 32 32" fill="none" xmlns="http://www.w3.org/2000/svg">
<path d="M14.0208 23.6802C14.0208 23.9563 14.2446 24.1802 14.5208 24.1802H17.3336C17.6097 24.1802 17.8336 23.9563 17.8336 23.6802V17.1722H19.6856C19.9368 17.1722 20.1489 16.9859 20.1814 16.7368L20.5366 14.0104C20.5552 13.8677 20.5114 13.724 20.4165 13.6159C20.3215 13.5078 20.1846 13.4458 20.0408 13.4458H17.8336V12.1986C17.8336 11.8271 17.8918 11.6532 17.9674 11.5638C18.0272 11.4931 18.1873 11.3738 18.6872 11.3738H20.1368C20.4129 11.3738 20.6368 11.1499 20.6368 10.8738V8.42579C20.6368 8.17182 20.4464 7.9582 20.1941 7.92909C19.9283 7.89842 19.0546 7.82019 18.0344 7.82019C16.8865 7.82019 15.8709 8.17208 15.141 8.89491C14.4096 9.61911 14.0208 10.6604 14.0208 11.9298V13.4458H12.1592C11.883 13.4458 11.6592 13.6696 11.6592 13.9458V16.6722C11.6592 16.9483 11.883 17.1722 12.1592 17.1722H14.0208V23.6802Z" stroke="#464646" stroke-linejoin="round"/>
<rect x="0.5" y="0.5" width="31" height="31" rx="15.5" stroke="#FFDCDA"/>
</svg>
