<svg width="64" height="64" viewBox="0 0 64 64" fill="none" xmlns="http://www.w3.org/2000/svg">
<path d="M31.2007 12.0581L31.9992 13.1175L32.7978 12.0581C35.1045 8.99801 38.5645 7.40002 43.1992 7.40002C48.3162 7.40002 52.4334 9.17828 55.2795 12.3158C58.1351 15.4638 59.7992 20.0787 59.7992 25.9C59.7992 30.2625 57.6237 35.0469 53.0394 40.3164C48.4612 45.5788 41.5624 51.2293 32.3192 57.3036C32.1237 57.4322 31.8748 57.4322 31.6792 57.3036C22.436 51.2293 15.5372 45.5788 10.9591 40.3164C6.37471 35.0469 4.19922 30.2625 4.19922 25.9C4.19922 20.0787 5.86332 15.4638 8.71891 12.3158C11.565 9.17828 15.6822 7.40002 20.7992 7.40002C25.4339 7.40002 28.894 8.99801 31.2007 12.0581Z" stroke="black" stroke-width="2"/>
</svg>
