<svg width="32" height="32" viewBox="0 0 32 32" fill="none" xmlns="http://www.w3.org/2000/svg">
<path d="M19.5988 8.80017H12.3988C10.4106 8.80017 8.79883 10.4119 8.79883 12.4002V19.6002C8.79883 21.5884 10.4106 23.2002 12.3988 23.2002H19.5988C21.5871 23.2002 23.1988 21.5884 23.1988 19.6002V12.4002C23.1988 10.4119 21.5871 8.80017 19.5988 8.80017Z" stroke="#464646" stroke-linecap="round" stroke-linejoin="round"/>
<path d="M18.669 15.6043C18.7522 16.1657 18.6563 16.739 18.3949 17.2428C18.1335 17.7465 17.72 18.155 17.213 18.4102C16.7061 18.6653 16.1316 18.7542 15.5713 18.664C15.011 18.5738 14.4933 18.3093 14.092 17.908C13.6907 17.5067 13.4262 16.9891 13.336 16.4287C13.2459 15.8684 13.3347 15.2939 13.5898 14.787C13.845 14.2801 14.2535 13.8665 14.7572 13.6051C15.261 13.3437 15.8343 13.2478 16.3957 13.3311C16.9684 13.416 17.4985 13.6828 17.9079 14.0922C18.3172 14.5015 18.584 15.0317 18.669 15.6043Z" stroke="#464646" stroke-linecap="round" stroke-linejoin="round"/>
<path d="M20 12H20.0083" stroke="#464646" stroke-linecap="round" stroke-linejoin="round"/>
<rect x="0.5" y="0.5" width="31" height="31" rx="15.5" stroke="#FFDCDA"/>
</svg>
