<svg width="40" height="40" viewBox="0 0 40 40" fill="none" xmlns="http://www.w3.org/2000/svg">
<path d="M35 16.6666C35 28.3332 20 38.3332 20 38.3332C20 38.3332 5 28.3332 5 16.6666C5 12.6883 6.58035 8.87301 9.3934 6.05996C12.2064 3.24692 16.0218 1.66656 20 1.66656C23.9782 1.66656 27.7936 3.24692 30.6066 6.05996C33.4196 8.87301 35 12.6883 35 16.6666Z" fill="#FE3327"/>
<path d="M20 21.6666C22.7614 21.6666 25 19.428 25 16.6666C25 13.9051 22.7614 11.6666 20 11.6666C17.2386 11.6666 15 13.9051 15 16.6666C15 19.428 17.2386 21.6666 20 21.6666Z" fill="white"/>
</svg>
