<svg width="91" height="86" viewBox="0 0 91 86" fill="none" xmlns="http://www.w3.org/2000/svg">
<path d="M65.4662 41.0151C65.4662 41.0151 63.7196 35.0796 66.0478 29.6753C66.5145 28.5921 67.0634 27.624 67.6494 26.7378C69.987 23.2024 72.9143 20.9702 73.5607 17.9365C74.6635 18.8945 75.6049 19.7193 76.4012 20.5423C76.7691 20.2738 80.1015 17.4778 80.6212 15.0794C84.8645 15.555 85.9794 21.2603 85.9794 21.2603C87.5189 21.5293 88.9414 21.9326 90.0702 22.4088C88.1519 25.0778 88.9616 27.5637 88.9616 27.5637C90.4561 27.8684 91.6082 28.3145 92.2044 28.9614C88.1682 30.8335 88.1882 36.0305 80.784 40.1145C73.3798 44.1986 65.4662 41.0151 65.4662 41.0151ZM65.4662 41.0151C64.2113 42.3197 58.4693 48.3554 57.8637 52.593" stroke="#464646" stroke-dasharray="2 2"/>
<path d="M38.6743 39.1931C38.6743 39.1931 28.3405 36.1437 26.0818 30.71C25.6291 29.6209 25.3162 28.5529 25.088 27.5152C24.1774 23.3759 24.6129 19.7205 22.885 17.1444C24.3405 17.0197 27.8048 19.9755 28.95 19.9769C29.0134 19.5258 27.1092 12.1296 25.7493 10.0869C29.0448 7.37178 31.9768 15.7394 31.9768 15.7394C33.2417 14.8214 38.0303 8.16478 47.3673 8.16478C47.9478 11.4 50.296 12.5493 50.296 12.5493C51.5552 11.6886 52.6775 11.1721 53.557 11.1945C52.091 15.3953 55.8357 18.9988 53.613 27.1573C51.3902 35.3159 38.6743 39.1931 38.6743 39.1931ZM38.6743 39.1931C38.7373 41.0022 39.0728 49.3261 41.6932 52.7109" stroke="#464646" stroke-dasharray="2 2"/>
<g filter="url(#filter0_d)">
<path d="M23.5648 43.5741C19.2977 39.447 17.0134 31.137 9.42447 30.8664C1.8355 30.5957 6.66138 42.5323 7.062 43.0849C7.65427 46.9142 3.07368 52.5255 8.67932 55.3368C14.285 58.1481 17.1031 52.7326 17.8598 52.7029C18.4652 52.6792 21.9154 46.6071 23.5648 43.5741ZM23.5648 43.5741C26.9968 45.775 29.7571 49.1131 31.8932 52.6393" stroke="#464646" stroke-dasharray="2 2"/>
</g>
<path d="M22.6413 59.6141H21.1138V52.9628H65.3031V59.6141H63.5573M22.6413 59.6141H23.6233M22.6413 59.6141V68.5934M63.5573 59.6141H62.3571M63.5573 59.6141V69.0368M41.299 59.6141H51.3371M41.299 59.6141H34.2069M41.299 59.6141L37.7529 63.2169M22.6413 78.5704V85H26.351M22.6413 78.5704V68.5934M22.6413 78.5704L27.5512 73.5819M51.3371 59.6141H62.3571M51.3371 59.6141L48.1729 62.8289M26.351 85H37.3711M26.351 85L32.6794 78.5704M62.3571 59.6141L53.7375 68.4825M48.3366 73.859L42.9902 79.2909M37.3711 85H47.3M37.3711 85L38.1894 84.1686M34.2069 59.6141L37.7529 63.2169M34.2069 59.6141H23.6233M37.7529 63.2169L32.4611 68.5934M42.8265 68.2608L48.1729 62.8289M42.8265 68.2608L53.301 78.9029M42.8265 68.2608L37.4802 73.6927M59.302 85H63.5573V78.4595M59.302 85L53.301 78.9029M59.302 85H47.3M48.1729 62.8289L58.9202 73.7482M63.5573 78.4595V69.0368M63.5573 78.4595L58.9202 73.7482M63.5573 69.0368L58.9202 73.7482M53.301 78.9029L47.3 85M23.6233 59.6141L32.4611 68.5934M32.4611 68.5934L27.5512 73.5819M37.4802 73.6927L42.9902 79.2909M37.4802 73.6927L32.6794 78.5704M42.9902 79.2909L38.1894 84.1686M22.6413 68.5934L27.5512 73.5819M32.6794 78.5704L38.1894 84.1686" stroke="black"/>
<defs>
<filter id="filter0_d" x="0.682129" y="30.3618" width="35.6386" height="34.284" filterUnits="userSpaceOnUse" color-interpolation-filters="sRGB">
<feFlood flood-opacity="0" result="BackgroundImageFix"/>
<feColorMatrix in="SourceAlpha" type="matrix" values="0 0 0 0 0 0 0 0 0 0 0 0 0 0 0 0 0 0 127 0"/>
<feOffset dy="4"/>
<feGaussianBlur stdDeviation="2"/>
<feColorMatrix type="matrix" values="0 0 0 0 0 0 0 0 0 0 0 0 0 0 0 0 0 0 0.25 0"/>
<feBlend mode="normal" in2="BackgroundImageFix" result="effect1_dropShadow"/>
<feBlend mode="normal" in="SourceGraphic" in2="effect1_dropShadow" result="shape"/>
</filter>
</defs>
</svg>
