<svg width="42" height="18" viewBox="0 0 42 18" fill="none" xmlns="http://www.w3.org/2000/svg">
<g clip-path="url(#clip0)">
<path d="M33.0302 3H8.97011C5.70311 3 3.05469 5.65647 3.05469 8.9334V9.0666C3.05469 12.3435 5.70311 15 8.97011 15H33.0302C36.2972 15 38.9456 12.3435 38.9456 9.0666V8.9334C38.9456 5.65647 36.2972 3 33.0302 3Z" fill="#FF4E50"/>
<path fill-rule="evenodd" clip-rule="evenodd" d="M13.2686 12.0684L11.7429 9.21928C13.0069 8.85028 13.8877 7.94068 13.9054 7.03978C13.9227 6.27598 13.3733 5.68378 12.5014 5.76118C11.6996 5.82958 11.4555 6.36178 11.5165 6.42178C11.6996 6.59338 12.214 7.77778 11.3161 8.29258L10.4093 6.01858C10.4093 6.01858 10.392 5.96698 10.3483 5.96698H8.14249C8.0728 5.96698 8.09015 6.02698 8.09015 6.02698L9.50276 8.79898C8.26452 9.15058 7.29696 10.0518 7.24462 10.9356C7.20095 11.6907 7.75008 12.3 8.50888 12.3C9.31074 12.3 9.75549 11.5962 9.6858 11.4849C9.5201 11.313 9.05771 10.3863 9.89516 9.80278L10.8364 12.0684C10.8364 12.0684 10.8454 12.1113 10.8887 12.1113H13.2426C13.2949 12.1113 13.2689 12.0684 13.2689 12.0684H13.2686ZM18.395 10.3176C18.4734 9.72568 18.7785 7.76908 18.7785 7.76908C18.7785 7.73488 18.7524 7.72618 18.7524 7.72618H17.0087C17.0087 7.72618 16.9564 7.73488 16.9564 7.77778C16.9564 7.77778 16.9217 8.00938 16.878 8.36968C16.6687 7.88908 16.2852 7.55458 15.6838 7.55458C14.5415 7.55458 13.7917 8.60158 13.6437 9.77698C13.4953 10.9269 13.9577 12.2229 15.056 12.2229C15.6661 12.2229 16.1895 11.811 16.5553 11.253C16.5903 11.8623 17.0174 12.2313 17.6189 12.2313C18.1073 12.2313 18.6217 11.8968 18.7435 11.6223C18.8571 11.3904 18.229 11.6823 18.395 10.3176ZM15.9455 11.0385C15.5178 11.0385 15.361 10.5237 15.4397 9.88018C15.5181 9.23638 15.8058 8.71318 16.2329 8.71318C16.66 8.71318 16.8257 9.23638 16.7473 9.88018C16.6687 10.5237 16.3723 11.0385 15.9452 11.0385H15.9455ZM24.3753 7.83748C24.3753 7.81168 24.358 7.80328 24.3493 7.80328H24.3583C22.998 7.52848 21.7688 7.54558 20.5658 7.80328C20.5569 7.80328 20.5308 7.81168 20.5308 7.84618C20.5308 7.84618 20.3651 9.22768 20.1037 9.89698C19.6066 11.1327 19.0662 11.193 19.0488 11.3559C19.0225 11.5359 19.2406 12.2997 20.0514 12.2997C20.7572 12.2997 21.2457 11.8536 21.5074 10.8237C21.6817 10.1457 21.7861 9.39058 21.8211 8.59258H22.5273C22.3702 9.86248 22.0915 12.0681 22.0915 12.0681C22.0915 12.111 22.1262 12.111 22.1262 12.111H23.8089C23.8089 12.111 23.8436 12.111 23.8436 12.0681C23.8436 12.0681 24.3493 8.03488 24.3753 7.83748ZM26.6682 8.78998L26.7118 8.61838C30.2689 8.23228 29.6935 5.64928 27.9321 5.70088C25.8923 5.75218 24.7678 8.23228 24.7678 10.1028C24.7678 11.2872 25.4826 12.2655 26.7992 12.2655C28.1505 12.2655 29.2664 11.3214 29.1617 9.93148C29.066 8.71288 27.6621 8.45548 26.6682 8.78998ZM27.6187 6.82498C27.8364 6.82498 27.8451 6.94498 27.8364 7.05658C27.7667 7.58008 26.9036 7.96618 26.9036 7.96618C26.9909 7.66588 27.2436 6.82498 27.6184 6.82498H27.6187ZM27.5837 10.3431C27.5747 10.5921 27.357 11.2956 26.9036 11.2956C26.2674 11.2956 26.4591 9.93118 26.5288 9.55378C26.5288 9.55378 26.8079 9.46798 27.0343 9.50218C27.4703 9.57958 27.6097 9.87988 27.5837 10.3431ZM34.3749 10.3176C34.4535 9.72538 34.7586 7.76878 34.7586 7.76878C34.7586 7.73458 34.7326 7.72588 34.7326 7.72588H32.9889C32.9889 7.72588 32.9365 7.73458 32.9365 7.77748C32.9365 7.77748 32.9015 8.00908 32.8582 8.36938C32.6488 7.88908 32.2654 7.55428 31.6636 7.55428C30.5217 7.55428 29.7718 8.60128 29.6238 9.77698C29.4754 10.9266 29.9375 12.2226 31.0361 12.2226C31.6462 12.2226 32.1694 11.8107 32.5354 11.2527C32.5704 11.862 32.9975 12.231 33.599 12.231C34.0874 12.231 34.6016 11.8965 34.7236 11.622C34.8369 11.3901 34.2095 11.682 34.3749 10.3176ZM31.9253 11.0382C31.4982 11.0382 31.3412 10.5234 31.4198 9.87988C31.4979 9.23608 31.7856 8.71288 32.213 8.71288C32.6401 8.71288 32.8058 9.23608 32.7275 9.87988C32.6488 10.5234 32.3524 11.0382 31.9253 11.0382Z" fill="white"/>
</g>
<defs>
<clipPath id="clip0">
<rect width="35.8909" height="12" fill="white" transform="translate(3.05469 3)"/>
</clipPath>
</defs>
</svg>
