<svg width="42" height="18" viewBox="0 0 42 18" fill="none" xmlns="http://www.w3.org/2000/svg">
<path d="M18.565 14.6816H15.6064L17.4569 3.3556H20.4153L18.565 14.6816Z" fill="#00579F"/>
<path d="M29.2898 3.63217C28.7062 3.40301 27.7807 3.14998 26.6362 3.14998C23.7146 3.14998 21.6572 4.69216 21.6446 6.89701C21.6203 8.52374 23.1176 9.42727 24.2375 9.96967C25.3821 10.5239 25.7712 10.8857 25.7712 11.3797C25.7595 12.1385 24.8463 12.4882 23.9945 12.4882C22.8133 12.4882 22.1804 12.3079 21.2186 11.8858L20.829 11.7048L20.415 14.2473C21.1089 14.5602 22.3873 14.8379 23.7146 14.85C26.8189 14.85 28.8399 13.3317 28.8638 10.9821C28.8756 9.69279 28.085 8.70486 26.3805 7.89758C25.3457 7.37936 24.712 7.02993 24.712 6.49969C24.7241 6.01766 25.248 5.52394 26.416 5.52394C27.3778 5.49976 28.0845 5.7286 28.6199 5.95761L28.8874 6.07788L29.2898 3.63217Z" fill="#00579F"/>
<path d="M33.2228 10.6692C33.4665 10.0185 34.404 7.50026 34.404 7.50026C34.3917 7.52444 34.6471 6.83759 34.7932 6.41593L35 7.39185C35 7.39185 35.5602 10.1029 35.6819 10.6692C35.2195 10.6692 33.8072 10.6692 33.2228 10.6692ZM36.8747 3.3556H34.5863C33.8806 3.3556 33.3445 3.56026 33.04 4.29532L28.6455 14.6814H31.7498C31.7498 14.6814 32.2609 13.2835 32.3707 12.9824C32.7113 12.9824 35.7311 12.9824 36.1692 12.9824C36.2541 13.3801 36.5222 14.6814 36.5222 14.6814H39.2615L36.8747 3.3556Z" fill="#00579F"/>
<path d="M13.1354 3.3556L10.238 11.0788L9.9214 9.51246C9.38574 7.70509 7.70579 5.74141 5.83105 4.76502L8.48494 14.6696H11.6135L16.2638 3.3556H13.1354Z" fill="#00579F"/>
<path d="M7.54792 3.3556H2.78795L2.73926 3.58444C6.45233 4.52432 8.91143 6.78987 9.92176 9.51294L8.887 4.30765C8.71664 3.58428 8.19311 3.37946 7.54792 3.3556Z" fill="#FAA61A"/>
</svg>
