<svg width="26" height="18" viewBox="0 0 26 18" fill="none" xmlns="http://www.w3.org/2000/svg">
<path d="M16.7143 3.14998H9.75V14.4H16.7143V3.14998Z" fill="#FF5F00"/>
<path d="M10.2596 8.77403C10.2587 7.7179 10.505 6.67541 10.9797 5.72546C11.4544 4.77551 12.1452 3.94299 12.9997 3.29091C11.9414 2.48224 10.6703 1.97938 9.33192 1.83979C7.99351 1.70021 6.6417 1.92953 5.431 2.50156C4.2203 3.07359 3.19955 3.96523 2.48542 5.0746C1.77129 6.18396 1.39258 7.46628 1.39258 8.775C1.39258 10.0837 1.77129 11.366 2.48542 12.4754C3.19955 13.5848 4.2203 14.4764 5.431 15.0484C6.6417 15.6205 7.99351 15.8498 9.33192 15.7102C10.6703 15.5706 11.9414 15.0678 12.9997 14.2591C12.1449 13.6068 11.454 12.774 10.9793 11.8237C10.5045 10.8734 10.2584 9.8305 10.2596 8.77403Z" fill="#EB001B"/>
<path d="M23.7645 13.4239V13.2017H23.8634V13.1557H23.6279V13.2017H23.7209V13.4239H23.7645ZM24.2216 13.4239V13.1557H24.1503L24.0672 13.3473L23.9841 13.1557H23.9129V13.4239H23.9643V13.2208L24.0415 13.3952H24.0949L24.1721 13.2208V13.4239H24.2216Z" fill="#F79E1B"/>
<path d="M24.6071 8.77597C24.6071 10.0846 24.2284 11.3669 23.5142 12.4762C22.8 13.5854 21.7791 14.477 20.5684 15.0488C19.3577 15.6207 18.0058 15.8499 16.6675 15.7101C15.3291 15.5703 14.0582 15.0673 13 14.2585C13.8541 13.6059 14.5446 12.7732 15.0194 11.8233C15.4942 10.8734 15.7409 9.83112 15.7409 8.775C15.7409 7.71889 15.4942 6.67656 15.0194 5.72667C14.5446 4.77678 13.8541 3.94413 13 3.29155C14.0582 2.48272 15.3291 1.97967 16.6675 1.8399C18.0058 1.70013 19.3577 1.92928 20.5684 2.50116C21.7791 3.07304 22.8 3.96457 23.5142 5.07384C24.2284 6.18311 24.6071 7.46537 24.6071 8.77403V8.77597Z" fill="#F79E1B"/>
</svg>
