<svg width="24" height="18" viewBox="0 0 24 18" fill="none" xmlns="http://www.w3.org/2000/svg">
<path fill-rule="evenodd" clip-rule="evenodd" d="M18.9685 3.36413C16.5332 0.878622 12.5891 0.878622 10.1538 3.36413C7.71294 5.85534 7.71294 9.89852 10.1538 12.3897C12.5891 14.8752 16.5332 14.8752 18.9685 12.3897C21.4094 9.89852 21.4094 5.85534 18.9685 3.36413ZM9.43954 2.66428C12.267 -0.221426 16.8554 -0.221426 19.6828 2.66428C22.3894 5.42669 22.5 9.83156 20.0144 12.7281L23.8571 16.6501C24.0504 16.8473 24.0472 17.1639 23.8499 17.3571C23.6527 17.5504 23.3361 17.5472 23.1429 17.3499L19.3134 13.4416C16.4689 15.9701 12.1469 15.8528 9.43954 13.0896C6.6177 10.2096 6.6177 5.54429 9.43954 2.66428ZM0 3.39427C0 3.11813 0.223858 2.89427 0.5 2.89427H6.01062C6.28677 2.89427 6.51062 3.11813 6.51062 3.39427C6.51062 3.67042 6.28677 3.89427 6.01062 3.89427H0.5C0.223858 3.89427 0 3.67042 0 3.39427ZM0 7.89427C0 7.61813 0.223858 7.39427 0.5 7.39427H5.00869C5.28484 7.39427 5.50869 7.61813 5.50869 7.89427C5.50869 8.17041 5.28484 8.39427 5.00869 8.39427H0.5C0.223858 8.39427 0 8.17041 0 7.89427ZM0 12.3943C0 12.1181 0.223858 11.8943 0.5 11.8943H6.01062C6.28677 11.8943 6.51062 12.1181 6.51062 12.3943C6.51062 12.6704 6.28677 12.8943 6.01062 12.8943H0.5C0.223858 12.8943 0 12.6704 0 12.3943Z" fill="black"/>
</svg>
