<svg width="32" height="32" viewBox="0 0 32 32" fill="none" xmlns="http://www.w3.org/2000/svg">
<g clip-path="url(#clip0)">
<path d="M24.3807 19.4275L24.3805 19.4273C23.9845 18.9519 23.5313 18.5221 23.0684 18.0838L23.0684 18.0838L23.0647 18.0803C22.903 17.9272 22.7325 17.7658 22.5677 17.6048L22.5675 17.6046C22.3483 17.3903 22.0851 17.1154 22.0483 16.746C22.011 16.3712 22.221 16.0539 22.3956 15.809L22.3961 15.8083C22.6561 15.4449 22.931 15.0821 23.1922 14.7374L23.1942 14.7347C23.4329 14.4195 23.6759 14.0988 23.9082 13.7778L23.9564 13.7109L23.9565 13.7109C24.4145 13.0772 24.8308 12.4945 25.051 11.8045C25.0782 11.7177 25.0961 11.6398 25.099 11.5719L24.3807 19.4275ZM24.3807 19.4275C24.6021 19.6931 24.8328 19.9901 25.0069 20.3273C25.1165 20.5403 25.1026 20.7447 25.0256 20.8808C24.9689 20.9809 24.8857 21.0303 24.7931 21.0384H22.0935H22.0743L22.0552 21.0399C21.4959 21.0828 21.0036 20.8965 20.5191 20.4035L20.519 20.4033C20.2668 20.147 20.0239 19.8751 19.7801 19.602L19.78 19.6019L19.7712 19.592C19.662 19.4697 19.5509 19.3453 19.4383 19.2218L19.4367 19.2201C19.3118 19.0843 19.1296 18.8949 18.9026 18.7467L18.9011 18.7458C18.7683 18.6598 18.5825 18.5704 18.3726 18.5704C18.3199 18.5704 18.179 18.5728 18.0195 18.6641C17.8704 18.7495 17.7537 18.8838 17.662 19.0503L17.6618 19.0506C17.409 19.5106 17.3651 20.0243 17.3472 20.4228C17.3307 20.7625 17.2605 20.8685 17.2201 20.908C17.1766 20.9505 17.0599 21.0213 16.7045 21.0386C16.5518 21.0458 16.4007 21.0493 16.2551 21.0493C14.9733 21.0493 13.8958 20.7774 12.9413 20.2313L12.9409 20.2311M24.3807 19.4275L12.9409 20.2311M17.8941 16.0244L17.8785 16.0184C17.7025 15.9498 17.5955 15.8186 17.5396 15.7361C17.4774 15.6445 17.433 15.5454 17.4015 15.4588C17.3418 15.2946 17.2997 15.0935 17.3036 14.9265L17.3015 11.5314C17.2671 11.2857 17.221 11.1713 17.173 11.1078C17.1393 11.0633 17.0693 10.9965 16.8538 10.951H13.8058C13.6281 10.951 13.5178 10.9859 13.4361 11.0303C13.3651 11.0687 13.2945 11.1258 13.2117 11.2147C13.4467 11.2755 13.6632 11.39 13.8354 11.577C14.0302 11.7884 14.1309 12.0518 14.1721 12.3276C14.2864 13.0886 14.2986 13.8904 14.2173 14.8403L14.2173 14.8405C14.1925 15.1295 14.141 15.383 14.0423 15.6157L13.582 15.4205L14.0426 15.615C14.0303 15.6441 13.9975 15.7188 13.9483 15.7937C13.9245 15.8301 13.8832 15.8877 13.8228 15.9414C13.7696 15.9887 13.6397 16.0885 13.4465 16.0886H13.4461C13.2941 16.0886 13.1411 16.0294 12.9877 15.9238C12.6658 15.7031 12.4452 15.3974 12.2468 15.1165C11.5309 14.1048 10.9329 12.994 10.4176 11.7246C10.2968 11.4298 10.1123 11.3212 9.89183 11.3174C9.40397 11.31 8.96222 11.3064 8.54132 11.3064C8.0813 11.3064 7.65538 11.3106 7.23985 11.3193L7.23829 11.3193L7.23829 11.3193C6.96582 11.3241 6.91809 11.4004 6.91402 11.4069C6.91398 11.407 6.91393 11.4071 6.9139 11.4071L6.91379 11.4073C6.91376 11.4073 6.91371 11.4074 6.91367 11.4075C6.90946 11.4141 6.86062 11.4902 6.97282 11.7394L6.97289 11.7395C8.14564 14.3467 9.20058 16.2237 10.3944 17.8432L17.8941 16.0244ZM17.8941 16.0244L17.9101 16.0295M17.8941 16.0244L17.9101 16.0295M17.9101 16.0295C17.9584 16.0446 18.0224 16.059 18.0976 16.059C18.2337 16.059 18.3394 16.0111 18.3982 15.9788C18.4612 15.9443 18.5127 15.9038 18.5493 15.8724C18.6169 15.8145 18.6813 15.7452 18.7215 15.702L18.7266 15.6965L18.7277 15.6953L18.7575 15.6635C18.7577 15.6633 18.7578 15.6631 18.758 15.663L17.9101 16.0295ZM12.9409 20.2311C12.0284 19.7102 11.2195 18.9611 10.3944 17.8433L12.9409 20.2311ZM24.985 11.3857C25.044 11.4127 25.0674 11.4379 25.0786 11.4562L21.0975 11.6355C21.0975 11.6354 21.0976 11.6354 21.0976 11.6353C21.1571 11.486 21.2227 11.4139 21.2768 11.376C21.3291 11.3395 21.41 11.3072 21.5513 11.3069L21.5733 11.3071V11.3071L21.5773 11.3071L24.5316 11.3092H24.5319C24.6232 11.3092 24.6927 11.3119 24.7544 11.3224L24.7544 11.3224C24.8447 11.3377 24.9228 11.3572 24.985 11.3857Z" stroke="#464646"/>
</g>
<rect x="0.5" y="0.5" width="31" height="31" rx="15.5" stroke="#FFDCDA"/>
<defs>
<clipPath id="clip0">
<rect width="19.2" height="19.2" fill="white" transform="translate(6.39941 6.40009)"/>
</clipPath>
</defs>
</svg>
